<svg width="95" height="40" viewBox="0 0 95 40" fill="none" xmlns="http://www.w3.org/2000/svg">
<rect x="0.5" y="0.5" width="94" height="39" fill="white"/>
<path d="M13.1985 25H14.7539V23.7269H14.8871C15.1747 24.2489 15.7607 25.1598 17.2521 25.1598C19.2337 25.1598 20.6719 23.5724 20.6719 20.9251C20.6719 18.2724 19.2124 16.7116 17.2362 16.7116C15.718 16.7116 15.1694 17.6385 14.8871 18.1445H14.7912V14.0909H13.1985V25ZM14.7592 20.9091C14.7592 19.1992 15.505 18.0646 16.8952 18.0646C18.3388 18.0646 19.0632 19.2844 19.0632 20.9091C19.0632 22.5497 18.3175 23.8015 16.8952 23.8015C15.5263 23.8015 14.7592 22.6296 14.7592 20.9091ZM25.9067 25.1651C28.2132 25.1651 29.7206 23.4766 29.7206 20.9464C29.7206 18.4002 28.2132 16.7116 25.9067 16.7116C23.6002 16.7116 22.0928 18.4002 22.0928 20.9464C22.0928 23.4766 23.6002 25.1651 25.9067 25.1651ZM25.912 23.8281C24.4046 23.8281 23.7014 22.5124 23.7014 20.9411C23.7014 19.375 24.4046 18.0433 25.912 18.0433C27.4088 18.0433 28.1119 19.375 28.1119 20.9411C28.1119 22.5124 27.4088 23.8281 25.912 23.8281ZM34.9448 25.1651C37.2512 25.1651 38.7587 23.4766 38.7587 20.9464C38.7587 18.4002 37.2512 16.7116 34.9448 16.7116C32.6383 16.7116 31.1309 18.4002 31.1309 20.9464C31.1309 23.4766 32.6383 25.1651 34.9448 25.1651ZM34.9501 23.8281C33.4426 23.8281 32.7395 22.5124 32.7395 20.9411C32.7395 19.375 33.4426 18.0433 34.9501 18.0433C36.4469 18.0433 37.15 19.375 37.15 20.9411C37.15 22.5124 36.4469 23.8281 34.9501 23.8281ZM44.3557 16.8182H42.6778V14.858H41.0851V16.8182H39.8866V18.0966H41.0851V22.9279C41.0798 24.4141 42.2144 25.1332 43.4715 25.1065C43.9775 25.1012 44.3184 25.0053 44.5049 24.9361L44.2172 23.6204C44.1107 23.6417 43.9136 23.6896 43.6579 23.6896C43.1412 23.6896 42.6778 23.5192 42.6778 22.5977V18.0966H44.3557V16.8182ZM52.1167 18.8157C51.7865 17.5426 50.7904 16.7116 49.0219 16.7116C47.1736 16.7116 45.8632 17.6864 45.8632 19.1353C45.8632 20.2965 46.5663 21.0689 48.1004 21.4098L49.4854 21.7134C50.2737 21.8892 50.6412 22.2408 50.6412 22.7521C50.6412 23.386 49.9648 23.8814 48.9207 23.8814C47.9672 23.8814 47.3547 23.4712 47.1629 22.6669L45.6235 22.9013C45.8898 24.3501 47.0937 25.1651 48.9314 25.1651C50.9076 25.1651 52.2765 24.1158 52.2765 22.6349C52.2765 21.479 51.5415 20.7653 50.0393 20.419L48.7396 20.1207C47.8394 19.9077 47.4506 19.604 47.4559 19.0501C47.4506 18.4215 48.1324 17.9741 49.0379 17.9741C50.0287 17.9741 50.4868 18.5227 50.6732 19.0714L52.1167 18.8157ZM57.8469 16.8182H56.169V14.858H54.5763V16.8182H53.3778V18.0966H54.5763V22.9279C54.571 24.4141 55.7056 25.1332 56.9627 25.1065C57.4688 25.1012 57.8097 25.0053 57.9961 24.9361L57.7085 23.6204C57.6019 23.6417 57.4048 23.6896 57.1491 23.6896C56.6325 23.6896 56.169 23.5192 56.169 22.5977V18.0966H57.8469V16.8182ZM59.6088 25H61.2014V20.0036C61.2014 18.9329 62.0271 18.1605 63.1563 18.1605C63.4866 18.1605 63.8595 18.2191 63.9873 18.2564V16.733C63.8275 16.7116 63.5132 16.6957 63.3108 16.6957C62.352 16.6957 61.5317 17.239 61.2334 18.1179H61.1482V16.8182H59.6088V25ZM67.6734 25.1811C69.0264 25.1811 69.7881 24.494 70.0917 23.8814H70.1556V25H71.711V19.5668C71.711 17.1857 69.836 16.7116 68.5363 16.7116C67.0555 16.7116 65.6919 17.3082 65.1592 18.7997L66.656 19.1406C66.8904 18.56 67.4869 18.0007 68.5576 18.0007C69.5857 18.0007 70.113 18.5387 70.113 19.4656V19.5028C70.113 20.0835 69.5164 20.0728 68.0463 20.2433C66.4962 20.4244 64.9088 20.8292 64.9088 22.6882C64.9088 24.2969 66.118 25.1811 67.6734 25.1811ZM68.0196 23.9027C67.1194 23.9027 66.4695 23.4979 66.4695 22.7095C66.4695 21.8572 67.2259 21.5536 68.1475 21.4311C68.6642 21.3619 69.8893 21.2234 70.1183 20.9943V22.049C70.1183 23.0185 69.346 23.9027 68.0196 23.9027ZM73.8324 28.0682H75.4251V23.7269H75.521C75.8086 24.2489 76.3945 25.1598 77.886 25.1598C79.8675 25.1598 81.3058 23.5724 81.3058 20.9251C81.3058 18.2724 79.8462 16.7116 77.87 16.7116C76.3519 16.7116 75.8033 17.6385 75.521 18.1445H75.3878V16.8182H73.8324V28.0682ZM75.3931 20.9091C75.3931 19.1992 76.1388 18.0646 77.5291 18.0646C78.9727 18.0646 79.6971 19.2844 79.6971 20.9091C79.6971 22.5497 78.9513 23.8015 77.5291 23.8015C76.1602 23.8015 75.3931 22.6296 75.3931 20.9091Z" fill="#091E42"/>
<rect x="0.5" y="0.5" width="94" height="39" stroke="#8993A4"/>
</svg>
