<svg width="56" height="40" viewBox="0 0 56 40" fill="none" xmlns="http://www.w3.org/2000/svg">
<rect x="0.5" y="0.5" width="55" height="39" fill="white"/>
<path d="M14.6634 20.142C14.6634 18.837 15.489 18.0913 16.6236 18.0913C17.7209 18.0913 18.3761 18.7891 18.3761 19.9876V25H19.9688V19.7958C19.9688 17.7557 18.8501 16.7116 17.1669 16.7116C15.8938 16.7116 15.1268 17.2656 14.7433 18.1499H14.642V14.0909H13.0707V25H14.6634V20.142ZM25.9134 16.8182H24.2354V14.858H22.6428V16.8182H21.4442V18.0966H22.6428V22.9279C22.6374 24.4141 23.772 25.1332 25.0291 25.1065C25.5352 25.1012 25.8761 25.0053 26.0625 24.9361L25.7749 23.6204C25.6683 23.6417 25.4712 23.6896 25.2156 23.6896C24.6989 23.6896 24.2354 23.5192 24.2354 22.5977V18.0966H25.9134V16.8182ZM27.6752 25H29.2678V19.9556C29.2678 18.853 30.0402 18.0859 30.9458 18.0859C31.83 18.0859 32.4426 18.6719 32.4426 19.5614V25H34.0299V19.7852C34.0299 18.7997 34.6318 18.0859 35.6705 18.0859C36.5122 18.0859 37.2046 18.5547 37.2046 19.6626V25H38.7973V19.5135C38.7973 17.6438 37.7533 16.7116 36.2725 16.7116C35.0953 16.7116 34.211 17.2763 33.8169 18.1499H33.7316C33.3747 17.255 32.6237 16.7116 31.5317 16.7116C30.4504 16.7116 29.646 17.2496 29.3051 18.1499H29.2039V16.8182H27.6752V25ZM42.5247 14.0909H40.932V25H42.5247V14.0909Z" fill="#091E42"/>
<rect x="0.5" y="0.5" width="55" height="39" stroke="#8993A4"/>
</svg>
