<svg width="49" height="40" viewBox="0 0 49 40" fill="none" xmlns="http://www.w3.org/2000/svg">
<rect x="0.5" y="0.5" width="48" height="39" fill="white"/>
<path d="M16.517 25.1651C18.4506 25.1651 19.7024 24.0039 19.8782 22.4112H18.3281C18.1257 23.2955 17.4386 23.8175 16.5277 23.8175C15.18 23.8175 14.3118 22.6935 14.3118 20.9091C14.3118 19.1566 15.196 18.054 16.5277 18.054C17.5398 18.054 18.1577 18.6932 18.3281 19.4602H19.8782C19.7077 17.8089 18.3601 16.7116 16.5011 16.7116C14.1946 16.7116 12.7031 18.4482 12.7031 20.9464C12.7031 23.4126 14.1413 25.1651 16.517 25.1651ZM27.7124 18.8157C27.3822 17.5426 26.3861 16.7116 24.6176 16.7116C22.7693 16.7116 21.4589 17.6864 21.4589 19.1353C21.4589 20.2965 22.162 21.0689 23.6961 21.4098L25.0811 21.7134C25.8694 21.8892 26.2369 22.2408 26.2369 22.7521C26.2369 23.386 25.5605 23.8814 24.5164 23.8814C23.5629 23.8814 22.9504 23.4712 22.7586 22.6669L21.2192 22.9013C21.4855 24.3501 22.6894 25.1651 24.5271 25.1651C26.5033 25.1651 27.8722 24.1158 27.8722 22.6349C27.8722 21.479 27.1372 20.7653 25.635 20.419L24.3353 20.1207C23.4351 19.9077 23.0463 19.604 23.0516 19.0501C23.0463 18.4215 23.7281 17.9741 24.6336 17.9741C25.6244 17.9741 26.0825 18.5227 26.2689 19.0714L27.7124 18.8157ZM35.7544 18.8157C35.4242 17.5426 34.4281 16.7116 32.6596 16.7116C30.8113 16.7116 29.5009 17.6864 29.5009 19.1353C29.5009 20.2965 30.204 21.0689 31.7381 21.4098L33.123 21.7134C33.9114 21.8892 34.2789 22.2408 34.2789 22.7521C34.2789 23.386 33.6025 23.8814 32.5584 23.8814C31.6049 23.8814 30.9924 23.4712 30.8006 22.6669L29.2612 22.9013C29.5275 24.3501 30.7314 25.1651 32.5691 25.1651C34.5453 25.1651 35.9142 24.1158 35.9142 22.6349C35.9142 21.479 35.1792 20.7653 33.677 20.419L32.3773 20.1207C31.4771 19.9077 31.0882 19.604 31.0936 19.0501C31.0882 18.4215 31.7701 17.9741 32.6756 17.9741C33.6664 17.9741 34.1245 18.5227 34.3109 19.0714L35.7544 18.8157Z" fill="#091E42"/>
<rect x="0.5" y="0.5" width="48" height="39" stroke="#8993A4"/>
</svg>
