<svg width="73" height="223" viewBox="0 0 73 223" fill="none" xmlns="http://www.w3.org/2000/svg">
<path d="M132.82 171.489L146.241 167.769L142.523 154.354L129.102 158.075L125.383 144.66L138.805 140.94L135.086 127.525L121.665 131.245L108.244 134.965L104.526 121.551L117.947 117.831L114.228 104.416L100.807 108.136L104.526 121.551L91.1044 125.271L77.6832 128.991L73.9649 115.576L60.5438 119.297L47.1226 123.017L50.8409 136.431L54.5592 149.846L41.138 153.566L37.4197 140.152L31.4318 141.811L25.168 51.4311C25.168 51.4311 34.0596 38.188 57.95 37.3441C93.7339 36.0926 111.297 55.3369 140.911 61.907C159.522 66.0821 163.651 57.7151 163.651 57.7151L175.727 135.373C175.727 135.373 206.875 128.628 224.661 149.477C235.215 161.886 219.351 174.839 202.936 179.389C185.798 184.14 165.529 181.202 133.077 172.418L132.82 171.489Z" fill="white" stroke="#FF6B00" stroke-width="0.496227" stroke-miterlimit="10"/>
<path d="M70.1562 153.967C64.9321 153.971 60.3497 154.685 56.1915 155.727L54.5612 149.845L67.9824 146.125L70.1562 153.967Z" fill="white" stroke="#FF6B00" stroke-width="0.496227" stroke-miterlimit="10"/>
<path d="M34.5349 169.841L33.5025 170.127L32.4685 155.969L41.1406 153.565L43.3144 161.407C38.8912 164.3 35.907 167.572 34.5349 169.841Z" fill="white" stroke="#FF6B00" stroke-width="0.496227" stroke-miterlimit="10"/>
<path d="M64.2625 132.712L77.6836 128.992L81.4019 142.406L67.9808 146.126L64.2625 132.712Z" fill="white" stroke="#FF6B00" stroke-width="0.496227" stroke-miterlimit="10"/>
</svg>
