<svg width="61" height="40" viewBox="0 0 61 40" fill="none" xmlns="http://www.w3.org/2000/svg">
<rect x="0.5" y="0.5" width="60" height="39" fill="white"/>
<path d="M13.1985 25H14.8445V20.8718H17.0817C17.119 20.8718 17.1509 20.8718 17.1882 20.8718L19.4041 25H21.2791L18.8608 20.5842C20.1978 20.0888 20.8636 18.9755 20.8636 17.5107C20.8636 15.5025 19.6172 14.0909 17.087 14.0909H13.1985V25ZM14.8445 19.4549V15.5025H16.9112C18.5359 15.5025 19.207 16.2749 19.207 17.5107C19.207 18.7411 18.5359 19.4549 16.9325 19.4549H14.8445ZM27.9215 21.6069C27.9268 22.9972 26.8935 23.6577 25.9986 23.6577C25.0131 23.6577 24.3313 22.9439 24.3313 21.8306V16.8182H22.7386V22.0224C22.7386 24.0518 23.8519 25.1065 25.4233 25.1065C26.6538 25.1065 27.4901 24.4567 27.8683 23.5831H27.9535V25H29.5195V16.8182H27.9215V21.6069ZM31.7874 25H33.3428V23.7269H33.4759C33.7636 24.2489 34.3495 25.1598 35.841 25.1598C37.8225 25.1598 39.2607 23.5724 39.2607 20.9251C39.2607 18.2724 37.8012 16.7116 35.825 16.7116C34.3069 16.7116 33.7583 17.6385 33.4759 18.1445H33.3801V14.0909H31.7874V25ZM33.3481 20.9091C33.3481 19.1992 34.0938 18.0646 35.4841 18.0646C36.9276 18.0646 37.6521 19.2844 37.6521 20.9091C37.6521 22.5497 36.9063 23.8015 35.4841 23.8015C34.1151 23.8015 33.3481 22.6296 33.3481 20.9091ZM41.763 28.0469C43.0787 28.0469 43.915 27.3597 44.3837 26.092L47.7662 16.8342L46.0456 16.8182L43.9735 23.1676H43.8883L41.8162 16.8182H40.1117L43.1053 25.1065L42.9082 25.6499C42.5034 26.7099 41.9334 26.8058 41.0598 26.5661L40.6763 27.8711C40.8681 27.9616 41.2836 28.0469 41.763 28.0469Z" fill="#091E42"/>
<rect x="0.5" y="0.5" width="60" height="39" stroke="#8993A4"/>
</svg>
